<svg xmlns="http://www.w3.org/2000/svg" viewBox="0 0 128 128">
  <rect width="128" height="128" rx="12" fill="#f0db4f"/>
  <path fill="#323330" d="M80.6 97.4c2.3 3.7 5.3 6.4 10.6 6.4 4.5 0 7.4-2.3 7.4-5.5 0-3.8-3-5.2-8.1-7.4l-2.8-1.2c-8.1-3.5-13.5-7.8-13.5-17 0-8.5 6.5-15 16.8-15 7.3 0 12.6 2.5 16.4 9l-9 5.8c-2-3.5-4.1-4.9-7.4-4.9s-5.3 2.1-5.3 4.9c0 3.4 2.1 4.8 6.9 6.9l2.8 1.2c9.6 4.1 15 8.3 15 17.7 0 10.1-7.9 15.6-18.4 15.6-10.3 0-17-4.9-20.3-11.3l8.9-5.8zM43.4 98.2c1.7 3 3.2 5.5 6.9 5.5 3.5 0 5.7-1.4 5.7-6.9V57.3h10.6v40.1c0 11-6.5 16-15.9 16-8.5 0-13.4-4.4-15.9-9.7l8.6-5.5z"/>
</svg>
